<svg enable-background="new 0 0 512 512" height="512" viewBox="0 0 512 512" width="512" xmlns="http://www.w3.org/2000/svg"><path d="m219.857 407.084h-216.212l-3.645 1.03v26.785c0 2.845 2.306 5.151 5.151 5.151h213.199c2.845 0 5.151-2.306 5.151-5.151v-26.785z" fill="#e8edf2"/><path d="m220.017 375.383h-216.264l-3.753 1.031v31.7h223.501v-31.7z" fill="#b6c4cf"/><path d="m508.153 407.084h-216.212l-3.442 1.03v26.785c0 2.845 2.306 5.151 5.151 5.151h213.199c2.845 0 5.151-2.306 5.151-5.151v-26.785z" fill="#fac600"/><path d="m508.481 375.383h-216.264l-3.718 1.031v31.7h223.501v-31.7z" fill="#fedf30"/><path d="m336.402 434.899v-26.785h-47.903v26.785c0 2.845 2.306 5.151 5.151 5.151h47.903c-2.845 0-5.151-2.306-5.151-5.151z" fill="#e8b800"/><path d="m288.499 376.414h47.903v31.7h-47.903z" fill="#fed402"/><path d="m47.903 434.899v-26.785h-47.903v26.785c0 2.845 2.306 5.151 5.151 5.151h47.903c-2.844 0-5.151-2.306-5.151-5.151z" fill="#d9e7ec"/><path d="m0 376.414h47.903v31.7h-47.903z" fill="#9facba"/><path d="m343.637 74.968-52.121 52.121c-1.932 1.932-3.017 4.552-3.017 7.284v242.04h223.501v-299.312c0-2.845-2.306-5.151-5.151-5.151h-155.927c-2.732 0-5.353 1.086-7.285 3.018z" fill="#fee97d"/><g fill="#fedf30"><path d="m289.437 130.106c.126-.277.264-.548.413-.813-.872 1.537-1.351 3.282-1.351 5.08v242.04h47.855v-242.04c0-1.488.332-2.939.938-4.267z"/><path d="m350.922 71.95c-1.488 0-2.939.332-4.267.938v46.918l44.838-44.838c1.932-1.932 4.552-3.017 7.284-3.017h-47.855z"/></g><path d="m346.655 127.016v-54.128c-1.111.506-2.138 1.2-3.017 2.08l-52.121 52.121c-.88.88-1.574 1.907-2.08 3.017h54.128c1.706 0 3.09-1.383 3.09-3.09z" fill="#d7aa02"/><path d="m55.139 74.968-52.122 52.121c-1.932 1.932-3.017 4.552-3.017 7.284v242.04h223.501v-299.312c0-2.845-2.306-5.151-5.151-5.151h-155.927c-2.732 0-5.352 1.086-7.284 3.018z" fill="#e8edf2"/><g fill="#d9e7ec"><path d="m.938 130.106c.126-.277.264-.548.414-.814-.873 1.537-1.352 3.283-1.352 5.081v242.04h47.903v-242.04c0-1.488.332-2.939.938-4.267z"/><path d="m62.423 71.95c-1.798 0-3.544.479-5.081 1.351.265-.149.537-.287.814-.413v46.966l44.886-44.886c1.932-1.932 4.552-3.017 7.284-3.017h-47.903z"/></g><path d="m58.156 127.016v-54.128c-1.111.506-2.138 1.2-3.017 2.08l-52.122 52.121c-.88.88-1.573 1.907-2.08 3.017h54.128c1.707 0 3.091-1.383 3.091-3.09z" fill="#b6c4cf"/><path d="m138.467 338.628-45.63-37.262c-1.676-1.369-1.676-3.931 0-5.299l45.63-37.262c2.234-1.824 5.585-.235 5.585 2.65v13.315c0 1.889 1.532 3.421 3.421 3.421h165.62c1.889 0 3.421 1.532 3.421 3.421v34.209c0 1.889-1.532 3.421-3.421 3.421h-165.62c-1.889 0-3.421 1.532-3.421 3.421v13.315c-.001 2.885-3.351 4.474-5.585 2.65z" fill="#00c27a"/><path d="m313.093 319.242h-165.62c-1.889 0-3.421 1.532-3.421 3.421v13.315c0 2.884-3.351 4.474-5.585 2.65l-9.421-7.693v-26.329c0-2.845 2.306-5.151 5.151-5.151h162.16c2.845 0 5.151-2.306 5.151-5.151v-16.113h11.585c1.889 0 3.421 1.532 3.421 3.421v34.209c0 1.889-1.532 3.421-3.421 3.421z" fill="#08b865"/><path d="m139.094 339.029c1.011.518 2.144.468 3.074 0z" fill="#09a755"/><path d="m373.533 263.576 45.63-37.262c1.676-1.369 1.676-3.931 0-5.299l-45.63-37.262c-2.234-1.824-5.585-.235-5.585 2.65v13.315c0 1.889-1.532 3.421-3.421 3.421h-165.62c-1.889 0-3.421 1.532-3.421 3.421v34.209c0 1.889 1.532 3.421 3.421 3.421h165.62c1.889 0 3.421 1.532 3.421 3.421v13.315c.001 2.885 3.351 4.474 5.585 2.65z" fill="#01d0fb"/><path d="m212.732 222.93c0-1.889 1.532-3.421 3.421-3.421h165.62c1.889 0 3.421-1.532 3.421-3.421v-22.813l-11.661-9.523c-2.234-1.824-5.585-.235-5.585 2.65v13.315c0 1.889-1.532 3.421-3.421 3.421h-165.62c-1.889 0-3.421 1.532-3.421 3.421v34.209c0 1.889 1.532 3.421 3.421 3.421h13.825z" fill="#01c0fa"/></svg>